<svg width="202" height="44" viewBox="0 0 202 44" fill="none" xmlns="http://www.w3.org/2000/svg">
<rect opacity="0.2" x="2" y="9" width="200" height="2" fill="black"/>
<g filter="url(#filter0_d)">
<circle cx="126" cy="10" r="10" fill="white"/>
</g>
<circle cx="126" cy="10" r="2" fill="#C4C4C4"/>
<g filter="url(#filter1_d)">
<circle cx="12" cy="10" r="10" fill="white"/>
</g>
<circle cx="12" cy="10" r="2" fill="#C4C4C4"/>
<rect x="22" y="9" width="94" height="2" fill="#91C92F"/>
<path d="M6.284 41.154C5.25733 41.154 4.38467 40.804 3.666 40.104C2.95667 39.3947 2.602 38.5267 2.602 37.5C2.602 36.4733 2.95667 35.61 3.666 34.91C4.38467 34.2007 5.25733 33.846 6.284 33.846C7.30133 33.846 8.16467 34.2007 8.874 34.91C9.59267 35.61 9.952 36.4733 9.952 37.5C9.952 38.5267 9.59267 39.3947 8.874 40.104C8.16467 40.804 7.30133 41.154 6.284 41.154ZM4.17 39.614C4.74867 40.1927 5.45333 40.482 6.284 40.482C7.11467 40.482 7.81467 40.1927 8.384 39.614C8.95333 39.0353 9.238 38.3307 9.238 37.5C9.238 36.6693 8.95333 35.9647 8.384 35.386C7.81467 34.8073 7.11467 34.518 6.284 34.518C5.45333 34.518 4.74867 34.8073 4.17 35.386C3.60067 35.9647 3.316 36.6693 3.316 37.5C3.316 38.3307 3.60067 39.0353 4.17 39.614ZM16.2632 34V34.686H13.7152V41H13.0152V34.686H10.4672V34H16.2632ZM27.2956 39.782C26.6516 40.6967 25.7509 41.154 24.5936 41.154C23.4363 41.154 22.5356 40.6967 21.8916 39.782C21.2476 38.8673 20.9256 37.64 20.9256 36.1C20.9256 34.56 21.2476 33.3327 21.8916 32.418C22.5356 31.5033 23.4363 31.046 24.5936 31.046C25.7509 31.046 26.6516 31.5033 27.2956 32.418C27.9396 33.3327 28.2616 34.56 28.2616 36.1C28.2616 37.64 27.9396 38.8673 27.2956 39.782ZM22.4516 39.306C22.9649 40.062 23.6789 40.44 24.5936 40.44C25.5083 40.44 26.2223 40.062 26.7356 39.306C27.2489 38.5407 27.5056 37.472 27.5056 36.1C27.5056 34.728 27.2489 33.664 26.7356 32.908C26.2223 32.1427 25.5083 31.76 24.5936 31.76C23.6789 31.76 22.9649 32.1427 22.4516 32.908C21.9383 33.664 21.6816 34.728 21.6816 36.1C21.6816 37.472 21.9383 38.5407 22.4516 39.306Z" fill="black"/>
<path d="M105.818 40.314H106.798V42.876H106.084V41H100.036V42.876H99.322V40.314H100.134C100.647 39.614 100.904 38.676 100.904 37.5V34H105.818V40.314ZM101.002 40.314H105.104V34.686H101.604V37.5C101.604 38.648 101.403 39.586 101.002 40.314ZM111.268 41.154C110.242 41.154 109.369 40.804 108.65 40.104C107.941 39.3947 107.586 38.5267 107.586 37.5C107.586 36.4733 107.941 35.61 108.65 34.91C109.369 34.2007 110.242 33.846 111.268 33.846C112.286 33.846 113.149 34.2007 113.858 34.91C114.577 35.61 114.936 36.4733 114.936 37.5C114.936 38.5267 114.577 39.3947 113.858 40.104C113.149 40.804 112.286 41.154 111.268 41.154ZM109.154 39.614C109.733 40.1927 110.438 40.482 111.268 40.482C112.099 40.482 112.799 40.1927 113.368 39.614C113.938 39.0353 114.222 38.3307 114.222 37.5C114.222 36.6693 113.938 35.9647 113.368 35.386C112.799 34.8073 112.099 34.518 111.268 34.518C110.438 34.518 109.733 34.8073 109.154 35.386C108.585 35.9647 108.3 36.6693 108.3 37.5C108.3 38.3307 108.585 39.0353 109.154 39.614ZM122.999 35.19C123.914 35.19 124.684 35.4607 125.309 36.002C125.944 36.534 126.261 37.2573 126.261 38.172C126.261 39.0867 125.944 39.8147 125.309 40.356C124.684 40.888 123.914 41.154 122.999 41.154C122.281 41.154 121.637 40.9813 121.067 40.636C120.507 40.2907 120.12 39.8053 119.905 39.18L120.535 38.816C120.694 39.3387 120.993 39.74 121.431 40.02C121.87 40.3 122.393 40.44 122.999 40.44C123.737 40.44 124.339 40.2347 124.805 39.824C125.281 39.4133 125.519 38.8627 125.519 38.172C125.519 37.4813 125.281 36.9307 124.805 36.52C124.339 36.1093 123.737 35.904 122.999 35.904H120.381L120.717 31.2H125.897V31.9H121.375L121.151 35.19H122.999ZM133.825 39.782C133.181 40.6967 132.28 41.154 131.123 41.154C129.966 41.154 129.065 40.6967 128.421 39.782C127.777 38.8673 127.455 37.64 127.455 36.1C127.455 34.56 127.777 33.3327 128.421 32.418C129.065 31.5033 129.966 31.046 131.123 31.046C132.28 31.046 133.181 31.5033 133.825 32.418C134.469 33.3327 134.791 34.56 134.791 36.1C134.791 37.64 134.469 38.8673 133.825 39.782ZM128.981 39.306C129.494 40.062 130.208 40.44 131.123 40.44C132.038 40.44 132.752 40.062 133.265 39.306C133.778 38.5407 134.035 37.472 134.035 36.1C134.035 34.728 133.778 33.664 133.265 32.908C132.752 32.1427 132.038 31.76 131.123 31.76C130.208 31.76 129.494 32.1427 128.981 32.908C128.468 33.664 128.211 34.728 128.211 36.1C128.211 37.472 128.468 38.5407 128.981 39.306ZM142.643 39.782C141.999 40.6967 141.099 41.154 139.941 41.154C138.784 41.154 137.883 40.6967 137.239 39.782C136.595 38.8673 136.273 37.64 136.273 36.1C136.273 34.56 136.595 33.3327 137.239 32.418C137.883 31.5033 138.784 31.046 139.941 31.046C141.099 31.046 141.999 31.5033 142.643 32.418C143.287 33.3327 143.609 34.56 143.609 36.1C143.609 37.64 143.287 38.8673 142.643 39.782ZM137.799 39.306C138.313 40.062 139.027 40.44 139.941 40.44C140.856 40.44 141.57 40.062 142.083 39.306C142.597 38.5407 142.853 37.472 142.853 36.1C142.853 34.728 142.597 33.664 142.083 32.908C141.57 32.1427 140.856 31.76 139.941 31.76C139.027 31.76 138.313 32.1427 137.799 32.908C137.286 33.664 137.029 34.728 137.029 36.1C137.029 37.472 137.286 38.5407 137.799 39.306ZM151.462 39.782C150.818 40.6967 149.917 41.154 148.76 41.154C147.602 41.154 146.702 40.6967 146.058 39.782C145.414 38.8673 145.092 37.64 145.092 36.1C145.092 34.56 145.414 33.3327 146.058 32.418C146.702 31.5033 147.602 31.046 148.76 31.046C149.917 31.046 150.818 31.5033 151.462 32.418C152.106 33.3327 152.428 34.56 152.428 36.1C152.428 37.64 152.106 38.8673 151.462 39.782ZM146.618 39.306C147.131 40.062 147.845 40.44 148.76 40.44C149.674 40.44 150.388 40.062 150.902 39.306C151.415 38.5407 151.672 37.472 151.672 36.1C151.672 34.728 151.415 33.664 150.902 32.908C150.388 32.1427 149.674 31.76 148.76 31.76C147.845 31.76 147.131 32.1427 146.618 32.908C146.104 33.664 145.848 34.728 145.848 36.1C145.848 37.472 146.104 38.5407 146.618 39.306Z" fill="black"/>
<defs>
<filter id="filter0_d" x="114" y="0" width="24" height="24" filterUnits="userSpaceOnUse" color-interpolation-filters="sRGB">
<feFlood flood-opacity="0" result="BackgroundImageFix"/>
<feColorMatrix in="SourceAlpha" type="matrix" values="0 0 0 0 0 0 0 0 0 0 0 0 0 0 0 0 0 0 127 0"/>
<feOffset dy="2"/>
<feGaussianBlur stdDeviation="1"/>
<feColorMatrix type="matrix" values="0 0 0 0 0 0 0 0 0 0 0 0 0 0 0 0 0 0 0.18 0"/>
<feBlend mode="normal" in2="BackgroundImageFix" result="effect1_dropShadow"/>
<feBlend mode="normal" in="SourceGraphic" in2="effect1_dropShadow" result="shape"/>
</filter>
<filter id="filter1_d" x="0" y="0" width="24" height="24" filterUnits="userSpaceOnUse" color-interpolation-filters="sRGB">
<feFlood flood-opacity="0" result="BackgroundImageFix"/>
<feColorMatrix in="SourceAlpha" type="matrix" values="0 0 0 0 0 0 0 0 0 0 0 0 0 0 0 0 0 0 127 0"/>
<feOffset dy="2"/>
<feGaussianBlur stdDeviation="1"/>
<feColorMatrix type="matrix" values="0 0 0 0 0 0 0 0 0 0 0 0 0 0 0 0 0 0 0.18 0"/>
<feBlend mode="normal" in2="BackgroundImageFix" result="effect1_dropShadow"/>
<feBlend mode="normal" in="SourceGraphic" in2="effect1_dropShadow" result="shape"/>
</filter>
</defs>
</svg>
