<svg width="171" height="188" viewBox="0 0 171 188" fill="none" xmlns="http://www.w3.org/2000/svg">
<path d="M77.6941 168.636C77.5901 168.506 67.1991 155.64 65.0851 152.876C63.7641 151.149 61.7781 150.198 59.4921 150.198C56.9321 150.198 54.6561 151.368 53.9801 151.751L48.4941 154.494C46.7211 154.015 42.9071 152.544 39.2141 148.226C35.9301 144.387 35.9531 139.24 36.1281 137.127L42.0211 131.234C45.1141 128.517 44.4731 124.718 43.2671 122.803L43.0481 122.492C43.0481 122.492 30.1861 106.271 28.3821 103.994C27.3931 102.745 25.9071 102.056 24.1981 102.056C21.3491 102.056 18.3191 104.031 17.4421 104.648C6.55711 112.397 5.85611 119.21 5.81111 119.961L5.78711 120.375L5.86111 120.784C12.2731 156.51 31.8871 171.921 41.3141 179.327C42.4621 180.228 43.4541 181.008 44.1681 181.633C50.7311 187.38 57.9301 188 60.7211 188C63.0961 187.999 65.2011 187.595 66.8101 186.829C71.1761 184.751 76.2351 178.819 77.6821 177.051C80.1831 173.992 78.9651 170.452 77.8501 168.843L77.6941 168.636ZM63.8011 180.509C63.3021 180.746 62.2311 181 60.7201 181C59.1601 181 53.6881 180.666 48.7761 176.368C47.9221 175.621 46.8631 174.789 45.6371 173.825C36.9431 166.995 18.9081 152.824 12.8571 120.141C13.1461 119.162 14.6861 115.203 21.4771 110.37C22.1291 109.917 22.9851 109.466 23.5961 109.228C26.4271 112.8 35.0061 123.62 37.0981 126.258L29.5701 133.785L29.3671 134.84C29.2861 135.262 27.4561 145.249 33.8941 152.777C40.1801 160.126 47.1441 161.444 48.4771 161.633L49.5591 161.787L57.2031 157.964L57.4211 157.846C57.7021 157.679 58.7561 157.198 59.4921 157.198C59.5281 157.198 59.5571 157.199 59.5801 157.201C61.7291 160.001 70.6851 171.098 72.0801 172.825C72.0811 172.829 72.0821 172.832 72.0841 172.835C69.5221 175.93 65.9111 179.504 63.8011 180.509Z" fill="white"/>
<path d="M137.85 59.824C143.362 54.647 145.006 47.849 142.883 39.041C142.676 38.185 142.035 37.5 141.194 37.239C140.352 36.977 139.434 37.179 138.78 37.769L130.559 45.172C129.121 44.377 126.883 42.721 126.094 39.842L132.897 33.113C133.844 32.175 133.889 30.66 133.001 29.667L132.815 29.46C132.622 29.244 132.393 29.064 132.137 28.927C131.977 28.841 128.149 26.811 123.313 26.811C118.604 26.811 114.454 28.732 111.311 32.367C105.311 39.305 106.754 47.409 107.768 50.838L104.28 54.326L93.9962 45.09L98.7132 41.824L78.6712 28.1L68.0702 38.703L81.7942 58.744L85.0602 54.027L94.2972 64.309L91.0022 67.603C89.5022 67.125 87.1192 66.551 84.3392 66.551C78.9102 66.551 74.1032 68.725 70.3772 72.91C70.1062 73.239 63.7782 81.075 67.6262 91.531C67.9102 92.304 68.5572 92.887 69.3552 93.091C70.1512 93.294 71.0002 93.092 71.6192 92.55L79.9142 85.291C81.2372 85.858 83.5362 87.371 84.5732 91.216L77.1892 98.732C76.5552 99.377 76.3192 100.314 76.5722 101.182C76.8252 102.05 77.5262 102.714 78.4072 102.919C78.5172 102.944 81.1312 103.542 84.5822 103.542C91.4222 103.542 96.6942 101.271 99.8272 96.975C103.19 92.362 103.921 87.542 103.821 83.887L120.038 100.104L120.21 100.262C121.731 101.522 124.528 102.987 127.661 102.987C129.888 102.987 132.286 102.246 134.513 100.163L140.031 94.647L140.133 94.543C145.145 89.185 142.391 82.845 140.233 80.241L123.288 63.282C124.315 63.388 125.436 63.463 126.61 63.463C131.498 63.462 135.279 62.238 137.85 59.824ZM84.5512 45.978L81.8172 49.927L74.5412 39.302L79.2722 34.57L89.8972 41.846L85.9472 44.58L100.739 57.866L96.6452 61.959L97.8362 60.767L84.5512 45.978ZM98.1132 79.502C98.2222 79.815 100.728 87.248 95.7852 94.029C93.0152 97.827 88.0372 98.555 84.3852 98.541L89.0882 93.754C89.6542 93.178 89.9082 92.363 89.7682 91.567C87.9772 81.42 80.0232 80.083 79.6852 80.031C78.9562 79.921 78.2142 80.135 77.6582 80.62L71.4542 86.048C70.9322 80.488 73.8672 76.559 74.2132 76.116C76.9342 73.086 80.3402 71.55 84.3382 71.55C87.8532 71.55 90.5692 72.761 90.5872 72.77C91.5402 73.209 92.6632 73.011 93.4052 72.269L112.405 53.269C113.13 52.545 113.339 51.453 112.932 50.513C112.897 50.43 109.438 42.173 115.09 35.637C117.285 33.098 120.051 31.811 123.311 31.811C124.541 31.811 125.694 31.994 126.676 32.232L121.629 37.225C121.078 37.769 120.811 38.537 120.904 39.305C121.916 47.605 129.873 50.382 130.211 50.496C131.066 50.784 132.012 50.59 132.684 49.985L138.733 44.538C139.106 49.402 137.713 53.092 134.424 56.18C132.416 58.067 129.065 58.463 126.606 58.463C122.917 58.463 119.655 57.598 119.624 57.59C118.759 57.354 117.829 57.604 117.194 58.243L98.6942 76.91C98.0232 77.587 97.8012 78.6 98.1132 79.502ZM103.615 81.344C103.615 81.347 103.615 81.349 103.615 81.352C103.615 81.349 103.615 81.347 103.615 81.344ZM103.434 80.223C103.444 80.275 103.454 80.327 103.463 80.381C103.453 80.329 103.443 80.274 103.434 80.223ZM136.525 91.079L131.046 96.555C127.798 99.535 124.146 96.987 123.47 96.468L104.827 77.823L119.768 62.748L117.733 64.801L136.44 83.507C136.9 84.099 139.537 87.794 136.525 91.079ZM121.316 63.025C121.324 63.026 121.332 63.027 121.339 63.029C121.332 63.027 121.324 63.026 121.316 63.025ZM120.473 62.882C120.493 62.886 120.518 62.89 120.539 62.894C120.516 62.89 120.494 62.886 120.473 62.882Z" fill="white"/>
<path d="M104.162 0.00201416C67.7542 0.00201416 38.2402 29.516 38.2402 65.924C38.2402 99.441 63.2602 127.096 95.6382 131.278V157.502C95.6382 157.502 153.077 136.259 167.607 83.88C167.685 83.597 167.746 83.342 167.818 83.068C167.931 82.644 168.043 82.218 168.148 81.791C168.212 81.528 168.267 81.277 168.326 81.022C169.463 76.171 170.084 71.121 170.084 65.924C170.084 29.516 140.57 0.00201416 104.162 0.00201416ZM161.51 79.424L161.504 79.451L161.498 79.478L161.469 79.608C161.43 79.778 161.393 79.947 161.35 80.123C161.256 80.499 161.159 80.874 161.049 81.284L160.945 81.684C160.92 81.792 160.892 81.9 160.863 82.008C155.299 102.064 142.343 119.708 122.357 134.45C114.984 139.888 107.949 143.914 102.638 146.625V131.277V125.123L96.5342 124.335C67.2912 120.558 45.2392 95.446 45.2392 65.923C45.2392 33.433 71.6712 7.00101 104.161 7.00101C136.649 7.00101 163.083 33.433 163.083 65.923C163.084 70.432 162.555 74.974 161.51 79.424Z" fill="white"/>
<path d="M54.583 181.998C51.792 181.998 44.5939 181.378 38.0289 175.634C37.3149 175.009 36.3229 174.23 35.1749 173.328C25.749 165.922 6.13395 150.511 -0.278051 114.785L-0.352051 114.376L-0.328051 113.962C-0.284051 113.21 0.41795 106.398 11.3029 98.649C12.1799 98.032 15.2099 96.057 18.0589 96.057C19.7669 96.057 21.2529 96.745 22.2429 97.995C24.0469 100.272 36.909 116.493 36.909 116.493L37.1279 116.804C38.334 118.719 38.9749 122.518 35.882 125.235L29.9889 131.128C29.8139 133.24 29.791 138.388 33.075 142.227C36.767 146.544 40.582 148.016 42.3549 148.495L47.841 145.752C48.5169 145.369 50.7929 144.199 53.353 144.199C55.639 144.199 57.625 145.15 58.9459 146.877C61.0599 149.641 71.4499 162.507 71.5549 162.637L71.7099 162.844C72.8249 164.453 74.0429 167.993 71.5419 171.052C70.0949 172.821 65.0369 178.752 60.6699 180.83C59.063 181.593 56.958 181.997 54.583 181.998ZM6.71995 114.14C12.7709 146.823 30.806 160.994 39.5 167.824C40.726 168.788 41.785 169.62 42.639 170.367C47.5509 174.665 53.0229 174.999 54.583 174.999C56.094 174.999 57.165 174.745 57.664 174.508C59.774 173.503 63.3859 169.929 65.9479 166.834C65.9469 166.831 65.9449 166.828 65.9439 166.824C64.5499 165.097 55.5929 154 53.444 151.2C53.421 151.198 53.3909 151.197 53.3559 151.197C52.6199 151.197 51.5659 151.678 51.285 151.845L51.067 151.963L43.423 155.786L42.341 155.632C41.0079 155.443 34.0439 154.124 27.7579 146.776C21.3199 139.249 23.15 129.261 23.2309 128.839L23.4339 127.784L30.9619 120.257C28.8699 117.618 20.2909 106.799 17.4599 103.227C16.8489 103.464 15.9929 103.915 15.3409 104.369C8.54795 109.202 7.00795 113.161 6.71995 114.14Z" fill="#3A3A3A"/>
<path d="M78.443 97.54C74.991 97.54 72.378 96.942 72.268 96.917C71.387 96.712 70.685 96.048 70.433 95.18C70.181 94.312 70.416 93.374 71.05 92.73L78.434 85.214C77.397 81.369 75.098 79.857 73.775 79.289L65.48 86.548C64.86 87.09 64.012 87.292 63.216 87.089C62.418 86.886 61.772 86.302 61.487 85.53C57.639 75.073 63.967 67.237 64.238 66.908C67.964 62.723 72.771 60.549 78.2 60.549C80.98 60.549 83.362 61.123 84.863 61.601L101.629 44.836C100.616 41.406 99.172 33.302 105.172 26.365C108.315 22.731 112.465 20.809 117.174 20.809C122.011 20.809 125.838 22.838 125.999 22.925C126.254 23.062 126.483 23.242 126.676 23.458L126.862 23.665C127.752 24.658 127.707 26.173 126.758 27.111L119.955 33.84C120.744 36.719 122.983 38.375 124.42 39.17L132.642 31.767C133.296 31.177 134.214 30.975 135.055 31.237C135.897 31.498 136.538 32.182 136.745 33.039C138.868 41.848 137.223 48.645 131.712 53.822C129.142 56.236 125.359 57.46 120.47 57.46C117.681 57.46 115.146 57.053 113.631 56.746L97.127 73.399C97.856 76.58 98.758 84.019 93.688 90.973C90.555 95.269 85.283 97.54 78.443 97.54ZM78.247 92.539C81.898 92.554 86.878 91.825 89.647 88.027C94.591 81.246 92.085 73.813 91.976 73.5C91.663 72.598 91.885 71.585 92.558 70.907L111.058 52.24C111.692 51.601 112.622 51.351 113.488 51.587C113.518 51.595 116.781 52.46 120.47 52.46C122.928 52.46 126.281 52.064 128.288 50.177C131.576 47.089 132.969 43.399 132.597 38.535L126.548 43.982C125.876 44.586 124.931 44.781 124.075 44.493C123.737 44.379 115.78 41.602 114.768 33.302C114.674 32.534 114.941 31.766 115.492 31.222L120.539 26.229C119.558 25.991 118.404 25.808 117.174 25.808C113.915 25.808 111.15 27.096 108.953 29.634C103.302 36.17 106.761 44.427 106.796 44.51C107.201 45.45 106.992 46.543 106.268 47.266L87.268 66.266C86.527 67.008 85.403 67.206 84.451 66.767C84.433 66.759 81.716 65.547 78.201 65.547C74.203 65.547 70.797 67.083 68.076 70.113C67.729 70.555 64.794 74.485 65.317 80.045L71.521 74.617C72.077 74.131 72.819 73.917 73.548 74.028C73.885 74.08 81.839 75.417 83.63 85.564C83.771 86.36 83.518 87.174 82.951 87.751L78.247 92.539Z" fill="#F0C42E"/>
<path d="M78.9209 48.025L88.1579 58.307L91.6979 54.766L78.4129 39.976L75.6779 43.925L68.4019 33.301L73.1339 28.569L83.7589 35.845L79.8089 38.579L94.5999 51.865L98.1409 48.324L87.8579 39.088L92.5749 35.822L72.5329 22.098L61.9319 32.701L75.6559 52.742L78.9209 48.025Z" fill="#3A3A3A"/>
<path d="M117.147 57.28C115.734 57.134 114.507 56.924 113.63 56.746L111.596 58.799L130.302 77.505C130.762 78.097 133.399 81.792 130.386 85.077L124.908 90.553C121.66 93.533 118.007 90.985 117.332 90.466L98.69 71.821L97.127 73.399C97.372 74.469 97.632 76.029 97.682 77.884L113.899 94.102L114.072 94.26C115.593 95.52 118.39 96.985 121.522 96.985C123.75 96.985 126.147 96.244 128.375 94.161L133.893 88.645L133.995 88.542C139.007 83.184 136.252 76.843 134.094 74.239L117.147 57.28Z" fill="#3A3A3A"/>
</svg>
